<?xml version="1.0" encoding="iso-8859-1"?>
<!-- Generator: Adobe Illustrator 18.1.1, SVG Export Plug-In . SVG Version: 6.00 Build 0)  -->
<svg version="1.1" id="Capa_1" xmlns="http://www.w3.org/2000/svg" xmlns:xlink="http://www.w3.org/1999/xlink" x="0px" y="0px"
	 viewBox="0 0 27.964 27.964" style="enable-background:new 0 0 27.964 27.964;" xml:space="preserve">
<g>
	<g id="c125_arrow">
		<path style="fill:#030104;" d="M13.982,0c-7.72,0-13.98,6.26-13.98,13.983c0,7.718,6.26,13.981,13.98,13.981
			c7.724,0,13.981-6.264,13.981-13.981C27.964,6.26,21.706,0,13.982,0z M13.982,26.532c-6.931,0-12.548-5.62-12.548-12.549
			C1.435,7.05,7.052,1.433,13.982,1.433c6.932,0,12.552,5.617,12.552,12.551C26.534,20.912,20.914,26.532,13.982,26.532z"/>
		<path style="fill:#030104;" d="M23.224,14.314l-6.293,6.469c0,0-0.744,0.788-0.744-0.069c0-0.858,0-2.933,0-2.933
			s-0.506,0-1.279,0c-2.214,0-6.238,0-7.879,0c0,0-0.444,0.115-0.444-0.56c0-0.676,0-6.166,0-6.65c0-0.483,0.373-0.474,0.373-0.474
			c1.594,0,5.757,0,7.897,0c0.689,0,1.146,0,1.146,0s0-1.662,0-2.709c0-1.042,0.78-0.257,0.78-0.257s5.878,5.692,6.495,6.308
			C23.723,13.889,23.224,14.314,23.224,14.314z"/>
	</g>
</g>
<g>
</g>
<g>
</g>
<g>
</g>
<g>
</g>
<g>
</g>
<g>
</g>
<g>
</g>
<g>
</g>
<g>
</g>
<g>
</g>
<g>
</g>
<g>
</g>
<g>
</g>
<g>
</g>
<g>
</g>
</svg>
